<?xml version="1.0" encoding="utf-8"?>
<!-- Generator: Adobe Illustrator 25.2.0, SVG Export Plug-In . SVG Version: 6.00 Build 0)  -->
<svg version="1.1" xmlns="http://www.w3.org/2000/svg" xmlns:xlink="http://www.w3.org/1999/xlink" x="0px" y="0px"
	 viewBox="0 0 240 240" style="enable-background:new 0 0 240 240;" xml:space="preserve">
<style type="text/css">
	.st0{fill:#FFFFFF;}
	.st1{fill:#FFFFFF;stroke:#000000;stroke-width:6;}
	.st2{stroke:#000000;stroke-width:0.541;stroke-miterlimit:3.7268;}
	.st3{stroke:#000000;stroke-width:3.1677;stroke-linecap:square;stroke-miterlimit:3.7268;}
	.st4{fill:none;stroke:#000000;stroke-width:6;}
	.st5{stroke:#FFFFFF;stroke-width:6;}
	.st6{fill:#FFFFFF;stroke:#FFFFFF;stroke-width:0.541;stroke-miterlimit:3.7268;}
	.st7{fill:#FFFFFF;stroke:#FFFFFF;stroke-width:3.1677;stroke-linecap:square;stroke-miterlimit:3.7268;}
	.st8{fill:none;stroke:#FFFFFF;stroke-width:6;}
</style>
<g id="BG">
	<rect class="st0" width="240" height="240"/>
</g>
<g id="IMG">
	<g>
		<circle class="st4" cx="120" cy="120" r="107"/>
		<g id="g3089-3_2_" transform="matrix(1.6969551,0,0,1.6969551,-568.54521,-1404.5554)">
			<path id="path916-3-7-8-6_2_" class="st2" d="M405.8,883.3l-18.3,41.3l3.6,7l-7.1,0.7c0,0.3,3.4,6.7,8.8,16.6
				c1.2,2.2,1.7,3.1,2.1,3.9l10.8-49.5l10.8,49.5c0.4-0.7,0.9-1.7,2.1-3.9c5.4-10,8.8-16.4,8.8-16.6l-7.1-0.7c1-2.3,2.6-5,3.9-7.6
				L405.8,883.3z"/>
			<g id="g1905-7_2_" transform="translate(113.47425,11.230937)">
				<path id="path1227-1-1-7-5_2_" class="st3" d="M287,888.4l10.5-28.6"/>
				<path id="path1227-1-2-5-6-3_2_" class="st3" d="M297.6,888.4L287,859.8"/>
			</g>
		</g>
		<g id="g50539-5_2_" transform="matrix(1.9362288,0,0,1.9362288,-273.52978,-830.82807)">
			<path id="path25303-2-6_2_" d="M240.3,464.5c0,0,0.5,1,1,2.2c3.4,7.8,3.6,8.3,7.6,15.7c0.6,1.1,1.1,2,1.1,2c0,0-1.3,0.2-2,0.3
				c-0.3,0-0.5,0.1-0.5,0.1c-0.1,0.1,2.5,5.2,7.3,14.1l0,0c-0.1,0.4-0.1,0.8-0.2,1.2c-0.4,0.1-0.9,0.2-1.7,0.3
				c-0.3,0.1-0.6,0.1-0.6,0.2c0,0.1,0.8,1.6,1.6,3.2c-4.7,18.4-19,32.9-37.1,38.2c-0.7-0.1-1.5-0.2-2.2-0.3
				c-0.4-0.1-0.8-0.1-0.8-0.2c0,0,0.1-0.2,2.8-5.2c5.4-10,8.8-16.4,8.8-16.6l-6.4-0.7c-0.1,0,0-0.3,1.4-2.7
				c5.5-10.3,8.2-15.3,8.2-15.5c0,0-0.3-0.1-0.6-0.2c-1.2-0.2-2.2-0.3-2.3-0.4l-0.2-0.1l0.6-1.1c4.8-8.9,7.4-13.9,7.3-14.1
				c0,0-0.3-0.1-0.5-0.1c-0.6-0.1-1.9-0.3-2-0.3c0,0,0.5-0.9,1.1-2c4-7.5,4.2-7.9,7.9-16.3C239.9,465.3,240.2,464.5,240.3,464.5
				L240.3,464.5z"/>
			<path id="path25303-2-5-2_2_" d="M166.2,464.5c0,0-0.5,1-1,2.2c-3.4,7.8-3.6,8.3-7.6,15.7c-0.6,1.1-1.1,2-1.1,2
				c0,0,1.3,0.2,2,0.3c0.3,0,0.5,0.1,0.5,0.1c0.1,0.1-2.5,5.2-7.3,14.1l0,0c0.1,0.4,0.1,0.8,0.2,1.2c0.4,0.1,0.9,0.2,1.7,0.3
				c0.3,0.1,0.6,0.1,0.6,0.2c0,0.1-0.8,1.6-1.6,3.2c4.7,18.4,19,32.9,37.1,38.2c0.7-0.1,1.5-0.2,2.2-0.3c0.4-0.1,0.8-0.1,0.8-0.2
				c0,0-0.1-0.2-2.8-5.2c-5.4-10-8.8-16.4-8.8-16.6l6.4-0.7c0.1,0,0-0.3-1.4-2.7c-5.5-10.3-8.2-15.3-8.2-15.5c0,0,0.3-0.1,0.6-0.2
				c1.2-0.2,2.2-0.3,2.3-0.4l0.2-0.1l-0.6-1.1c-4.8-8.9-7.4-13.9-7.3-14.1c0,0,0.3-0.1,0.5-0.1c0.6-0.1,1.9-0.3,2-0.3
				c0,0-0.5-0.9-1.1-2c-4-7.5-4.2-7.9-7.9-16.3C166.6,465.3,166.3,464.5,166.2,464.5L166.2,464.5z"/>
		</g>
	</g>
</g>
</svg>
