<svg xmlns="http://www.w3.org/2000/svg" viewBox="0 0 220 220"><path d="M120.45,214.53h0c-3.14.33-12.87.59-15.78.42s-8.69-.81-11.79-1.32A105.23,105.23,0,0,1,6.3,127,88.18,88.18,0,0,1,5,110,88.18,88.18,0,0,1,6.3,93,105.25,105.25,0,0,1,93,6.29,88.21,88.21,0,0,1,110,5a88.21,88.21,0,0,1,17,1.29A105.25,105.25,0,0,1,213.7,93a88.18,88.18,0,0,1,1.3,17,87.92,87.92,0,0,1-1.32,17.11,105.21,105.21,0,0,1-93.23,87.45Z"/><path d="M104.27,219.94A110.18,110.18,0,0,1,2.84,135.36,102.6,102.6,0,0,1,0,110,102.71,102.71,0,0,1,2.84,84.58,110.41,110.41,0,0,1,84.6,2.83,103.22,103.22,0,0,1,110,0a103.22,103.22,0,0,1,25.4,2.83,110.41,110.41,0,0,1,81.76,81.75A102.71,102.71,0,0,1,220,110a102.6,102.6,0,0,1-2.84,25.39,110.13,110.13,0,0,1-96.37,84.18c-3.28.33-13.54.58-16.52.4Zm16.08-6.36a104.24,104.24,0,0,0,92.38-86.65A86.39,86.39,0,0,0,214,110a87.4,87.4,0,0,0-1.28-16.84A104.29,104.29,0,0,0,126.85,7.24,87.48,87.48,0,0,0,110,6,87.48,87.48,0,0,0,93.15,7.24,104.29,104.29,0,0,0,7.24,93.13,87.4,87.4,0,0,0,6,110a87.44,87.44,0,0,0,1.28,16.85A104.28,104.28,0,0,0,93,212.69c3.06.51,8.66,1.13,11.67,1.31s12.54-.09,15.64-.42Zm-40.53-6.25a104.16,104.16,0,0,1-67-69.59l-.87-3,1.56-3.09c1.8-3.54,1.9-3.2-1.17-3.65l-1.92-.27-.16-1.14a6.77,6.77,0,0,1-.1-1.34c0-.12,2-3.74,4.26-8,6-11.13,10-19,9.73-19.15A9.93,9.93,0,0,0,22,97.65a16.21,16.21,0,0,1-2.25-.43c-.19-.1.81-2.15,3.28-6.74,4.64-8.63,7.6-14.69,11.42-23.45,1.72-3.93,3.28-7.45,3.46-7.8l.34-.65.29.56c.16.31,1.7,3.77,3.41,7.7,3.93,9,6.41,14.11,11.19,23,2.09,3.9,3.75,7.18,3.68,7.29a8.09,8.09,0,0,1-2.23.47,5.16,5.16,0,0,0-2.22.56c-.17.45,4.67,9.86,13,25.17,1.2,2.23,2.16,4.07,2.12,4.11s-1.35.27-2.9.51a21.76,21.76,0,0,0-3,.59c-.23.23,3.41,7.22,14,27,2.31,4.3,4.2,7.94,4.2,8.09s-.22.32-.49.38c-.5.11-10.85,1.23-11.35,1.23-.15,0-.27.16-.27.36,0,.6,6.37,12.71,17.7,33.66,4,7.3,4.48,8.38,4.13,8.51a53.27,53.27,0,0,1-5.48.85c-.21,0-2.12-.59-4.24-1.3Zm53.2.94c-3.42-.53-3.61.57,1.56-9,11.31-20.89,17.71-33.06,17.71-33.66,0-.2-.12-.36-.27-.36-.5,0-10.85-1.12-11.35-1.23-.27-.06-.49-.23-.49-.38s2.29-4.53,5.08-9.74c10.51-19.55,13.39-25.09,13.15-25.33a23.81,23.81,0,0,0-3-.58c-1.56-.24-2.86-.47-2.9-.51s1.26-2.53,2.89-5.54c8.15-15.11,12.36-23.3,12.19-23.74a5.33,5.33,0,0,0-2.22-.56,8.33,8.33,0,0,1-2.24-.47c-.06-.11,1.6-3.39,3.69-7.29,4.78-8.93,7.26-14,11.19-23,1.71-3.93,3.25-7.39,3.41-7.7l.29-.56.34.65c.18.36,1.52,3.37,3,6.7a258.38,258.38,0,0,0,12,24.77c2.32,4.35,3.33,6.43,3.15,6.53a18,18,0,0,1-2.25.42,9.77,9.77,0,0,0-2.17.45c-.22.2,3.75,8,9.73,19.15,2.31,4.3,4.23,7.92,4.26,8a6.77,6.77,0,0,1-.1,1.34l-.16,1.14-1.92.27c-3.07.45-3,.11-1.17,3.65l1.56,3.09-.87,3A104.22,104.22,0,0,1,139.7,207.5c-3.74,1.22-3.76,1.22-6.68.77Zm-47.22-16c-8.45-15.69-12.8-24-12.8-24.53s.3-.48,5.45-1c3-.28,5.62-.55,5.83-.61s0-.82-1.94-4.56c-1.27-2.44-2.63-5.05-3-5.79l-.69-1.35,14.8-33.46,14.8-33.45-4.63-12.52C101.08,68.19,99,62.53,99,62.51s.69-.27,1.45-.55c1.05-.38,1.44-.44,1.56-.24s1.89,5,4,10.71,3.89,10.45,4,10.45,1.84-4.7,4-10.45,3.91-10.56,4-10.71.51-.14,1.56.24c.76.27,1.42.52,1.45.55s-2,5.66-4.57,12.54l-4.62,12.5,15,33,15,33-2.07,3.8c-2.85,5.2-4.39,8.31-4.27,8.62s2,.44,5.85.79c5.48.5,5.75.55,5.75,1s-4.32,8.79-12.8,24.54c-4.08,7.58-5.85,10.68-6,10.41s-4.2-18.87-9.14-41.49-9-41.13-9.1-41.13-4.15,18.51-9.1,41.13-9.05,41.29-9.14,41.49-1.88-2.83-6-10.41Z" style="fill:#fff"/></svg>